<svg width="161" height="161" viewBox="0 0 161 161" fill="none" xmlns="http://www.w3.org/2000/svg">
<path fill-rule="evenodd" clip-rule="evenodd" d="M92.4325 23.8585C92.8099 23.1022 93.5657 22.3464 94.1325 21.7796L101.69 14.2218C107.359 8.55345 116.628 7.99809 122.878 12.7362L133.839 3.66932C139.32 -0.674916 147.645 -0.285548 152.76 4.82944L156.549 8.61832C161.664 13.7333 162.054 22.0584 157.52 27.7282L148.454 38.6895C153.192 44.9392 152.825 54.02 146.968 59.8773L139.41 67.4351C138.843 68.0019 138.087 68.7577 137.331 69.1351C139.422 76.5164 137.541 84.4601 131.872 90.1285L124.314 97.6862C120.158 101.843 116.566 103.919 110.515 106.182C110.136 106.181 109.191 106.748 109.001 106.558C103.139 108.632 100.303 110.331 96.1467 114.487C91.9899 118.644 89.7246 122.425 86.1396 129.799C85.9507 129.988 85.5738 131.123 85.3848 131.311C85.1964 131.879 84.819 132.635 84.63 132.824C81.7999 138.685 79.3456 142.655 75.5667 146.434L64.23 157.771C60.0732 161.928 53.2622 161.919 49.0944 157.751L3.62785 112.284C-0.539915 108.116 -0.548897 101.305 3.60789 97.1487L14.9446 85.812C18.7235 82.0331 22.6933 79.5788 28.5546 76.7486C29.122 76.5602 29.4998 76.1823 30.0672 75.9938C30.2561 75.8049 31.5797 75.2391 31.5797 75.2391C38.9536 71.6541 42.7345 69.3887 46.8913 65.232C51.0481 61.0752 52.7471 58.2395 54.8205 52.3772C54.8205 52.3772 55.1974 51.2425 55.1969 50.8642C57.6482 44.624 59.7246 41.032 63.8813 36.8752L71.4391 29.3174C77.1075 23.6491 85.2406 21.9571 92.4325 23.8585ZM67.8 139.045C70.6341 136.211 72.5221 133.186 74.9754 128.46C75.1638 127.893 75.5417 127.515 75.7301 126.947C75.9191 126.758 76.296 125.624 76.4849 125.435C80.4468 116.926 83.279 112.578 88.5694 107.288C94.0488 101.809 98.2081 99.5438 105.394 96.9045C105.394 96.9045 106.529 96.5276 106.718 96.3387C111.445 94.6422 113.903 93.3211 116.926 90.2979L124.484 82.7401C128.641 78.5834 128.632 71.7724 124.464 67.6046L93.9635 37.1041C89.7958 32.9363 82.9847 32.9274 78.828 37.0841L71.2702 44.6419C68.247 47.6651 67.1149 49.9339 65.2294 54.8505C65.2299 55.2289 64.6636 56.1741 64.6636 56.1741C62.2133 63.171 59.9484 67.3303 54.469 72.8097C49.1786 78.1002 44.4525 80.9319 36.3223 84.8942C36.1334 85.0832 34.9987 85.46 34.8098 85.649C34.2424 85.8374 33.6751 86.0259 33.2972 86.4038C28.1922 88.8566 25.1676 90.7445 22.3334 93.5787L10.9967 104.915L56.4633 150.382L67.8 139.045ZM139.579 52.1106C141.657 50.0322 141.653 46.6267 139.569 44.5428L137.675 42.6484C135.78 40.7539 135.587 37.5374 137.287 35.4585L149.187 20.9062C150.131 19.5831 150.128 17.3128 148.991 16.1761L145.203 12.3872C144.066 11.2506 141.796 11.2476 140.472 12.1918L125.92 24.0918C123.841 25.7919 120.625 25.5984 118.73 23.704L116.836 21.8095C114.752 19.7257 111.346 19.7212 109.268 21.7996L101.71 29.3574L132.021 59.6684L139.579 52.1106ZM53.9466 107.053C51.1099 107.995 50.5411 107.049 52.6195 104.97L65.8456 91.7441L58.2679 84.1664C57.1312 83.0297 57.5081 81.895 58.8317 81.3292L92.8703 68.8873C95.7069 67.945 96.0863 68.7023 94.0079 70.7807L77.0029 87.7858L84.5806 95.3635C85.7173 96.5002 85.3404 97.6349 83.8273 98.0113L53.9466 107.053Z" fill="#F1F1F1"/>
</svg>
