<svg width="202" height="118" viewBox="0 0 202 118" fill="none" xmlns="http://www.w3.org/2000/svg">
<g clip-path="url(#clip0_1_724)">
<path d="M84.168 59C84.168 91.8714 110.26 118 143.085 118C175.91 118 202.001 91.8714 202.001 59C202.001 26.1286 175.91 0 143.085 0C110.26 0 84.168 26.1286 84.168 59ZM117.835 59C117.835 44.6714 128.776 33.7143 143.085 33.7143C157.393 33.7143 168.335 44.6714 168.335 59C168.335 73.3286 157.393 84.2857 143.085 84.2857C128.776 84.2857 117.835 73.3286 117.835 59Z" fill="#FD7333"/>
<path d="M33.6667 25.2858H74.9083C63.9667 46.3572 63.9667 71.6429 74.9083 92.7143H33.6667C15.15 92.7143 0 77.5429 0 59.0001C0 40.4572 15.15 25.2858 33.6667 25.2858Z" fill="#353535"/>
</g>
<defs>
<clipPath id="clip0_1_724">
<rect width="202" height="118" fill="white"/>
</clipPath>
</defs>
</svg>
