<svg width="148" height="146" viewBox="0 0 148 146" fill="none" xmlns="http://www.w3.org/2000/svg">
<path d="M0.693215 132.912C0.677935 136.299 2.11726 139.209 4.04509 141.154C6.45488 143.586 9.35317 145.053 12.7422 145.071C16.1311 145.088 19.0425 143.653 20.9878 141.728L22.9331 139.803C25.8249 142.721 29.6893 144.676 34.0465 144.699C38.4038 144.723 42.2835 143.292 45.2036 139.921C46.6625 138.477 48.1237 136.55 48.6166 134.617C51.5127 136.568 54.8951 138.037 58.2841 138.055C62.6414 138.078 66.521 136.647 69.439 133.76C72.3569 130.873 73.8268 127.011 73.8465 122.657C73.8661 118.303 72.4311 114.425 69.5394 111.507L60.3822 102.267L103.179 59.922L112.336 69.1621C115.228 72.08 119.094 73.5518 123.451 73.5748C127.809 73.5979 131.688 72.1671 134.606 69.28C137.524 66.3928 139.478 62.533 139.498 58.1791C139.513 54.7928 138.076 51.3989 136.153 48.486C138.094 47.5288 140.034 46.5715 141.493 45.1279C144.411 42.2408 146.365 38.3809 146.385 34.0271C146.405 29.6733 144.97 25.7956 141.594 22.8751L143.539 20.9503C148.402 16.1383 148.435 8.88196 143.616 4.01876C139.278 -0.358127 131.048 -0.401691 126.671 3.92907L124.725 5.85385C118.942 0.0180033 108.291 -0.0383729 102.455 5.73597C100.996 7.17956 99.5347 9.1069 99.0419 11.0394C93.254 6.17104 84.0532 6.60611 78.2195 11.8967C75.3015 14.7839 73.8316 18.6462 73.812 23.0001C73.7923 27.3539 75.2273 31.2316 78.6032 34.1521L87.7604 43.3922L44.9639 85.7374L34.8384 76.4922C29.055 70.6564 18.4039 70.6 12.568 76.3743C9.65005 79.2615 8.18016 83.1239 8.16052 87.4777C8.14524 90.864 9.58238 94.258 11.5058 97.1708C9.56491 98.1281 7.62399 99.0853 6.16502 100.529C3.24707 103.416 1.29305 107.276 1.2734 111.63C1.25376 115.984 2.68872 119.861 6.0646 122.782L4.11931 124.707C2.17401 126.631 0.708495 129.526 0.693215 132.912ZM132.934 10.735C133.42 10.2538 134.388 10.2589 134.388 10.2589C134.873 10.2615 135.357 10.264 135.839 10.7504C136.805 11.2393 136.8 12.2068 136.8 12.2068C136.798 12.6905 136.796 13.1743 136.31 13.6555L134.364 15.5803L130.991 12.176L132.934 10.735ZM108.72 12.0581C109.693 11.0957 111.15 10.1359 113.086 10.1462C115.023 10.1564 115.989 10.6453 117.435 12.1043L134.301 29.6092C135.265 30.5819 136.227 32.0383 136.218 33.9733C136.212 35.4246 135.721 36.8733 134.262 38.3169C131.83 40.7229 127.957 40.7024 125.547 38.2708L108.681 20.7658C107.717 19.7931 107.242 17.8555 107.248 16.4043C107.255 14.953 107.745 13.5043 108.72 12.0581ZM84.4456 26.9265C83.4817 25.9539 83.0041 24.5 83.0107 23.0488C83.0172 21.5975 83.5079 20.1488 84.9669 18.7052C85.9395 17.7428 87.3963 16.783 89.3329 16.7932C91.2694 16.8035 92.2355 17.2923 93.6814 18.7513L128.382 53.7664C129.346 54.739 130.308 56.1954 130.299 58.1305C130.293 59.5817 129.802 61.0304 128.343 62.474C125.911 64.88 122.038 64.8595 119.629 62.4279L84.4456 26.9265ZM93.5417 49.7118L96.9154 53.1161L54.1189 95.4613L50.7452 92.057L93.5417 49.7118ZM19.3154 83.1828C20.288 82.2204 22.229 81.2631 23.6814 81.2708C25.1338 81.2785 26.584 81.77 28.0299 83.2289L62.7309 118.244C63.6948 119.217 64.6565 120.673 64.6478 122.608C64.6412 124.059 64.1505 125.508 62.6916 126.952C60.26 129.358 56.3868 129.337 53.977 126.906L19.2761 91.8904C18.3122 90.9178 17.3505 89.4614 17.3592 87.5264C17.3657 86.0751 18.3427 84.1452 19.3154 83.1828ZM12.9124 107.337C13.8851 106.375 15.3419 105.415 16.7943 105.423C18.2467 105.431 19.6969 105.922 21.1428 107.381L38.0113 124.402C39.4572 125.861 39.9348 127.315 39.9282 128.766C39.9217 130.218 39.431 131.666 37.972 133.11C36.0246 135.518 32.1514 135.498 29.7416 133.066L12.8731 116.045C11.9092 115.072 10.9475 113.616 10.9562 111.681C10.9649 109.746 11.4556 108.297 12.9124 107.337ZM10.8667 131.515L12.812 129.59L16.1857 132.994L14.2404 134.919C13.7541 135.4 12.7858 135.395 12.7858 135.395C12.3017 135.393 11.8175 135.39 11.3356 134.904C10.3717 133.931 10.3738 133.448 10.376 132.964C10.3782 132.48 10.3804 131.996 10.8667 131.515Z" fill="#F1F1F1"/>
</svg>
