<svg width="164" height="150" viewBox="0 0 164 150" fill="none" xmlns="http://www.w3.org/2000/svg">
<path d="M34.355 83.5202C4.63824 80.9093 -9.00528 44.9163 12.4879 23.8426C23.5149 13.026 40.3357 10.4151 53.9792 17.5019C74.1641 -8.23411 115.469 -0.587922 124.813 30.5563C156.025 27.1995 174.528 64.871 152.1 86.8771C145.933 92.8448 137.522 96.5747 128.178 96.5747V132.754C127.991 153.082 34.5419 153.082 34.355 132.754V83.5202ZM17.7211 68.0413C22.0197 72.3307 28.0004 75.3145 34.355 76.0605V63.006C34.355 58.1572 41.8309 58.1572 41.8309 63.006V123.989C59.2123 115.224 103.507 115.224 120.889 123.989V77.7389C120.889 72.8901 128.364 72.8901 128.364 77.7389V89.3015C151.914 89.3015 163.314 61.5141 147.054 45.4757C137.522 36.1511 122.384 35.4051 112.104 43.6108C107.993 46.9677 98.2739 38.9485 117.711 32.2348C109.675 7.43126 76.7807 1.27701 60.1468 21.6047C66.6882 27.013 71.1738 34.4727 72.4821 43.2378C73.2297 48.0866 65.9407 49.2056 65.1931 44.3568C61.8289 22.1642 33.9812 13.026 17.7211 29.0644C6.69412 39.881 6.69412 57.4113 17.7211 68.0413ZM110.796 128.092C94.1622 123.616 68.3703 123.616 51.9233 128.092C38.6536 131.635 38.6536 133.873 51.9233 137.417C68.5572 141.892 94.3491 141.892 110.796 137.417C124.066 133.687 124.066 131.635 110.796 128.092Z" fill="#F1F1F1" stroke="#F1F1F1" stroke-width="3"/>
</svg>
