<svg width="332" height="476" viewBox="0 0 332 476" fill="none" xmlns="http://www.w3.org/2000/svg">
<path d="M101.016 289.285C102.605 290.871 104.724 291.928 106.843 291.928C108.963 291.928 111.082 290.871 112.671 289.285L229.222 172.969C232.4 169.797 232.4 164.51 229.222 161.338C226.043 158.165 220.745 158.165 217.567 161.338L106.314 271.837L53.336 218.967C50.1573 215.794 44.8595 215.794 41.6809 218.967C38.5022 222.139 38.5022 227.426 41.6809 230.598L101.016 289.285Z" fill="#F1F1F1"/>
<path d="M332 62.9982C332 59.826 329.881 57.1824 326.702 56.125L120.089 0.0821533C119.03 0.0821533 117.97 0.0821533 116.381 0.0821533L-89.7022 56.125C-92.8809 57.1824 -95 59.826 -95 62.9982V248.574C-95 396.612 18.3722 446.839 103.136 471.688L116.381 475.389C116.911 475.389 117.44 475.918 118.5 475.918C119.56 475.918 119.56 475.918 120.619 475.389L133.864 471.688C218.628 446.839 332 396.612 332 248.574V62.9982ZM317.696 248.574C317.696 387.624 210.151 434.679 129.625 458.471L118.5 461.643L107.375 458.471C26.8486 434.679 -80.696 387.095 -80.696 248.574V68.2853L118.5 14.3572L317.696 68.2853V248.574Z" fill="#F1F1F1"/>
<path d="M116.378 45.5509L-45.7335 89.4335C-48.9121 90.491 -51.0312 93.1345 -51.0312 96.3067V248.574C-51.0312 295.629 -37.7868 332.639 -10.7682 361.717C6.7144 380.751 29.4948 396.083 59.6921 409.83C76.1151 417.232 95.1871 424.105 115.848 429.921L116.908 430.449C117.438 430.449 118.497 430.978 119.027 430.978C119.557 430.978 120.616 430.978 121.146 430.449H121.676C238.227 395.555 288.026 341.627 288.026 248.574V96.3067C288.026 93.1345 285.907 90.491 282.728 89.4335L120.616 45.5509C119.027 45.5509 117.967 45.5509 116.378 45.5509ZM273.722 101.594V248.574C273.722 333.696 227.101 383.923 118.497 415.645C98.8955 409.83 80.8831 403.485 65.5196 396.612C37.4414 383.923 15.7206 369.119 -0.702477 352.201C-25.0722 325.765 -36.7273 291.928 -36.7273 248.574V101.594L118.497 59.826L273.722 101.594Z" fill="#F1F1F1"/>
</svg>
