<svg width="32" height="32" viewBox="0 0 32 32" fill="none" xmlns="http://www.w3.org/2000/svg">
<g clip-path="url(#clip0_1_1144)">
<path d="M29.0753 13.3886H28.0013V13.3333H16.0013V18.6666H23.5366C22.4373 21.7713 19.4833 24 16.0013 24C11.5833 24 8.0013 20.418 8.0013 16C8.0013 11.582 11.5833 7.99996 16.0013 7.99996C18.0406 7.99996 19.896 8.76929 21.3086 10.026L25.08 6.25463C22.6986 4.03529 19.5133 2.66663 16.0013 2.66663C8.63797 2.66663 2.66797 8.63663 2.66797 16C2.66797 23.3633 8.63797 29.3333 16.0013 29.3333C23.3646 29.3333 29.3346 23.3633 29.3346 16C29.3346 15.106 29.2426 14.2333 29.0753 13.3886H29.0753Z" fill="#FBC02D"/>
<path d="M4.20703 9.79396L8.5877 13.0066C9.77303 10.072 12.6437 7.99996 16.003 7.99996C18.0424 7.99996 19.8977 8.76929 21.3104 10.026L25.0817 6.25463C22.7004 4.03529 19.515 2.66663 16.003 2.66663C10.8817 2.66663 6.44037 5.55796 4.20703 9.79396H4.20703Z" fill="#E53935"/>
<path d="M16.0028 29.3333C19.4468 29.3333 22.5761 28.0153 24.9421 25.872L20.8155 22.38C19.4768 23.394 17.8128 24 16.0028 24C12.5348 24 9.59015 21.7886 8.48081 18.7026L4.13281 22.0526C6.33948 26.3706 10.8208 29.3333 16.0028 29.3333L16.0028 29.3333Z" fill="#4CAF50"/>
<path d="M29.074 13.3886L29.0633 13.3333H28H16V18.6666H23.5353C23.0073 20.1579 22.048 21.4439 20.8107 22.3806C20.8113 22.3799 20.812 22.3799 20.8127 22.3793L24.9393 25.8713C24.6473 26.1366 29.3333 22.6666 29.3333 15.9999C29.3333 15.1059 29.2413 14.2333 29.074 13.3886V13.3886Z" fill="#1565C0"/>
</g>
<defs>
<clipPath id="clip0_1_1144">
<rect width="32" height="32" fill="white"/>
</clipPath>
</defs>
</svg>
