<svg width="190" height="43" viewBox="0 0 190 43" fill="none" xmlns="http://www.w3.org/2000/svg">
<path d="M53.2104 16.125V37.625C53.2104 40.5797 50.8144 43 47.8894 43C44.9645 43 42.5685 40.5797 42.5685 37.625V16.125C42.5685 13.1703 40.1725 10.75 37.2475 10.75C34.3225 10.75 31.9265 13.1703 31.9265 16.125C31.9265 13.6418 31.3664 11.2844 30.3706 9.17836C29.4682 7.22953 28.1613 5.53216 26.6055 4.11769C27.7257 3.11184 29.0015 2.23173 30.3706 1.57164C30.8685 1.32018 31.3975 1.10015 31.9265 0.91155C33.6068 0.314328 35.3804 0 37.2475 0C39.1145 0 40.9193 0.314328 42.5685 0.91155C43.0974 1.10015 43.6264 1.32018 44.1243 1.57164C47.4227 3.17471 50.0676 5.84649 51.6546 9.17836C52.6503 11.2844 53.2104 13.6418 53.2104 16.125Z" fill="#FB7E4A"/>
<path d="M31.9271 16.125V26.875C31.9271 28.3523 31.3359 29.7039 30.3713 30.6783C29.4067 31.6528 28.0686 32.25 26.6062 32.25C25.1437 32.25 23.8056 31.6528 22.841 30.6783C21.8764 29.7039 21.2852 28.3523 21.2852 26.875V16.125C21.2852 13.6418 21.8453 11.2843 22.841 9.17835C23.7434 7.22952 25.0503 5.53215 26.6062 4.11768C28.162 5.53215 29.4689 7.26095 30.3713 9.17835C31.367 11.2843 31.9271 13.6418 31.9271 16.125Z" fill="#D86044"/>
<path d="M0 16.125V37.625C0 40.5797 2.396 43 5.321 43C8.24599 43 10.642 40.5797 10.642 37.625V16.125C10.642 13.1703 13.038 10.75 15.963 10.75C18.888 10.75 21.284 13.1703 21.284 16.125C21.284 13.6418 21.8441 11.2844 22.8398 9.17836C23.7422 7.22953 25.0491 5.53216 26.605 4.11769C25.4848 3.11184 24.209 2.23173 22.8398 1.57164C22.342 1.32018 21.813 1.10015 21.284 0.91155C19.6348 0.314328 17.83 0 15.963 0C14.096 0 12.2912 0.314328 10.642 0.91155C10.113 1.10015 9.58402 1.32018 9.08615 1.57164C5.78775 3.17471 3.14281 5.84649 1.55585 9.17836C0.560105 11.2844 0 13.6418 0 16.125Z" fill="#49B981"/>
<path d="M72.2523 32.2499C71.381 32.2499 70.6654 31.9985 70.043 31.4956C69.4518 30.9926 69.1406 30.3325 69.1406 29.5467V13.7989C69.1406 13.0445 69.4207 12.4159 70.0119 11.8815C70.572 11.3472 71.3188 11.0957 72.2523 11.0957C73.3103 11.0957 74.1193 11.4729 74.6483 12.1958C74.8661 12.4787 75.0217 12.7616 75.0528 13.0131C75.6129 12.3216 76.3286 11.7558 77.2621 11.3472C78.1645 10.9385 79.2225 10.7185 80.3427 10.7185C83.4544 10.7185 85.6948 11.7558 87.064 13.8303C87.873 12.8245 88.8999 12.0387 90.0823 11.5043C91.2648 10.97 92.5094 10.7185 93.7852 10.7185C96.3368 10.7185 98.3594 11.4729 99.853 13.0131C101.347 14.5533 102.093 16.9736 102.093 20.3055V29.6725C102.093 30.4268 101.813 31.0241 101.222 31.4956C100.662 31.967 99.9153 32.2185 99.044 32.2185C98.1727 32.2185 97.457 31.967 96.8969 31.4641C96.3368 30.9612 96.0257 30.3011 96.0257 29.5153V21.0913C96.0257 19.3939 95.7145 18.1681 95.1233 17.4137C94.532 16.6593 93.6919 16.3135 92.5717 16.3135C91.4826 16.3135 90.5802 16.6593 89.9267 17.3194C89.2733 17.9795 88.8065 18.7967 88.5887 19.7083V29.7039C88.5887 30.4583 88.3087 31.0555 87.7174 31.527C87.1573 31.9985 86.4105 32.2499 85.5392 32.2499C84.668 32.2499 83.9523 31.9985 83.3611 31.4956C82.801 30.9926 82.4898 30.3325 82.4898 29.5467V21.0913C82.4898 19.3939 82.1786 18.1681 81.5874 17.4137C80.9962 16.6593 80.156 16.3135 79.0358 16.3135C77.9778 16.3135 77.1066 16.6593 76.422 17.3194C75.7374 17.9795 75.2707 18.7653 75.0528 19.6454V29.4839C75.0528 30.2697 74.7728 30.9298 74.1816 31.4641C73.777 31.9985 73.0925 32.2499 72.2523 32.2499Z" fill="#49B981"/>
<path d="M110.432 32.25C109.561 32.25 108.814 31.9985 108.223 31.4956C107.631 30.9927 107.32 30.3326 107.32 29.5468V13.4532C107.32 12.6988 107.6 12.0702 108.192 11.5358C108.752 11.0015 109.498 10.75 110.432 10.75C111.334 10.75 112.081 11.0329 112.579 11.5358C113.108 12.0702 113.357 12.7303 113.357 13.5161V29.4839C113.357 30.2697 113.077 30.9298 112.486 31.4642C111.957 31.9985 111.272 32.25 110.432 32.25Z" fill="#49B981"/>
<path d="M136.2 32.2501C135.328 32.2501 134.613 31.9986 134.021 31.4957C133.461 30.9927 133.15 30.3327 133.15 29.5468V21.0914C133.15 19.3941 132.777 18.1682 132.03 17.4138C131.283 16.6594 130.35 16.3137 129.261 16.3137C128.109 16.3137 127.176 16.6909 126.398 17.4138C125.651 18.1682 125.184 19.0169 124.997 19.9913V29.484C124.997 30.2698 124.717 30.9299 124.126 31.4642C123.566 31.9986 122.85 32.2501 122.041 32.2501C121.17 32.2501 120.454 31.9986 119.832 31.4957C119.241 30.9927 118.93 30.3327 118.93 29.5468V13.799C118.93 13.0447 119.21 12.416 119.801 11.8816C120.361 11.3473 121.108 11.0958 122.041 11.0958C122.788 11.0958 123.379 11.2844 123.908 11.693C124.406 12.1017 124.749 12.5732 124.935 13.2018C126.18 11.5987 128.047 10.7815 130.567 10.7815C133.119 10.7815 135.204 11.5359 136.822 13.0761C138.409 14.6163 139.218 17.0366 139.218 20.3685V29.7354C139.218 30.4898 138.938 31.087 138.347 31.5585C137.787 31.9986 137.04 32.2501 136.2 32.2501Z" fill="#49B981"/>
<path d="M161.59 32.2501C160.719 32.2501 160.003 31.9986 159.412 31.4957C158.852 30.9927 158.541 30.3327 158.541 29.5468V21.0914C158.541 19.3941 158.167 18.1682 157.421 17.4138C156.674 16.6594 155.74 16.3137 154.651 16.3137C153.5 16.3137 152.566 16.6909 151.788 17.4138C151.042 18.1682 150.575 19.0169 150.388 19.9913V29.484C150.388 30.2698 150.108 30.9299 149.517 31.4642C148.957 31.9986 148.241 32.2501 147.432 32.2501C146.561 32.2501 145.845 31.9986 145.223 31.4957C144.631 30.9927 144.32 30.3327 144.32 29.5468V13.799C144.32 13.0447 144.6 12.416 145.192 11.8816C145.752 11.3473 146.498 11.0958 147.432 11.0958C148.179 11.0958 148.77 11.2844 149.299 11.693C149.797 12.1017 150.139 12.5732 150.326 13.2018C151.571 11.5987 153.438 10.7815 155.958 10.7815C158.51 10.7815 160.594 11.5359 162.213 13.0761C163.8 14.6163 164.609 17.0366 164.609 20.3685V29.7354C164.609 30.4898 164.329 31.087 163.737 31.5585C163.177 31.9986 162.461 32.2501 161.59 32.2501Z" fill="#49B981"/>
<path d="M178.675 32.25C175.594 32.25 173.136 31.2756 171.238 29.2953C169.34 27.3465 168.375 24.7061 168.375 21.4371C168.375 18.1367 169.309 15.5592 171.144 13.6418C173.011 11.7244 175.439 10.75 178.457 10.75C180.604 10.75 182.471 11.5044 184.089 13.0446C184.276 12.4788 184.618 12.0387 185.116 11.6615C185.614 11.2844 186.205 11.0958 186.89 11.0958C187.792 11.0958 188.539 11.3787 189.13 11.8816C189.69 12.4159 190.001 13.0446 190.001 13.799V29.5468C190.001 30.3326 189.721 30.9927 189.13 31.4956C188.57 31.9985 187.823 32.25 186.89 32.25C185.365 32.25 184.431 31.5899 184.089 30.2383C182.627 31.5899 180.822 32.25 178.675 32.25ZM179.173 26.6235C180.635 26.6235 181.818 26.1206 182.689 25.1462C183.56 24.1403 183.996 22.9145 183.996 21.4371C183.996 19.8969 183.56 18.6711 182.689 17.7595C181.818 16.848 180.666 16.3765 179.173 16.3765C177.741 16.3765 176.59 16.848 175.719 17.7595C174.816 18.6711 174.381 19.8969 174.381 21.4371C174.381 22.9145 174.816 24.1403 175.719 25.1462C176.59 26.152 177.741 26.6235 179.173 26.6235Z" fill="#49B981"/>
</svg>
