<svg width="571" height="500" viewBox="0 0 571 500" fill="none" xmlns="http://www.w3.org/2000/svg">
<path d="M518.115 20.1973L518.124 20.2019C556.29 38.4013 587.363 69.439 605.583 107.561C617.089 131.695 623.614 158.904 624 187.465V437.452C624 470.814 596.787 498 563.381 498C529.975 498 502.761 470.814 502.761 437.452V187.452C502.761 151.875 473.753 122.903 438.142 122.903C402.531 122.903 373.522 151.875 373.522 187.452V312.355C373.522 329.015 366.592 344.012 355.686 355.098C344.806 365.962 329.609 372.71 312.903 372.71C296.194 372.71 280.995 365.96 270.115 355.092L270.109 355.086L270.102 355.08C259.039 344.216 252.284 329.041 252.284 312.355V187.452C252.284 151.875 223.275 122.903 187.664 122.903C152.057 122.903 123.042 151.873 123.239 187.457V437.452C123.239 470.814 96.0255 498 62.6194 498C29.0235 498 2 470.818 2 437.452V187.452C2 158.905 8.52111 131.701 20.0278 107.563C38.4388 69.2522 69.3125 38.4101 107.473 20.0156C113.47 17.3105 119.593 14.6371 125.694 12.5423L125.705 12.5386L125.716 12.5348C145.077 5.64154 165.982 2 187.664 2C209.348 2 230.244 5.64187 249.396 12.7203L249.427 12.7316L249.458 12.7419C255.762 14.8407 261.691 17.3237 267.637 20.1973L267.64 20.1987C283.568 27.8664 298.338 37.6389 311.375 49.3207L312.709 50.5166L314.044 49.3207C327.075 37.6445 341.836 27.8755 357.756 20.2095C363.754 17.5043 369.877 14.8308 375.978 12.7359L375.989 12.7322L375.999 12.7285C395.361 5.83519 416.265 2.19365 437.948 2.19365C459.631 2.19365 480.535 5.83519 499.897 12.7285L499.916 12.7354L499.936 12.7419C506.239 14.8407 512.169 17.3237 518.115 20.1973Z" stroke="#4DB783" stroke-width="4"/>
</svg>
