<svg width="685" height="600" viewBox="0 0 685 600" fill="none" xmlns="http://www.w3.org/2000/svg">
<path d="M223.319 559.861L223.309 559.856C143.383 521.715 78.3136 456.671 40.1579 376.775L40.153 376.765C15.6616 326.195 2.40304 269.187 1.99997 209.346C1.99997 209.343 1.99991 209.34 1.99991 209.337L2.00002 -311.649C2.00002 -382.378 59.6429 -440 130.401 -440C201.158 -440 258.801 -382.378 258.801 -311.649L258.801 209.351C258.801 282.29 318.236 341.702 391.202 341.702C464.165 341.702 523.609 282.29 523.199 209.34L523.199 -50.9473C523.199 -86.2899 537.893 -118.081 560.971 -141.551C584.023 -164.59 616.218 -178.895 651.599 -178.895C686.984 -178.895 719.181 -164.588 742.233 -141.545L742.239 -141.539L742.245 -141.533C765.69 -118.494 780 -86.3162 780 -50.9473L780 209.351C780 269.175 766.344 326.186 742.247 376.773C719.755 423.343 688.425 464.702 650.66 499.241C623.361 523.719 592.444 544.191 559.11 560.252C546.607 565.896 533.769 571.509 520.953 575.913L520.942 575.916L520.931 575.92C480.375 590.37 436.597 598 391.202 598C345.806 598 302.035 590.37 261.489 575.522L261.461 575.512L261.433 575.503C248.205 571.095 235.77 565.883 223.319 559.861Z" fill="#F87D50" stroke="#F87D50" stroke-width="4"/>
</svg>
