<svg width="544" height="787" viewBox="0 0 544 787" fill="none" xmlns="http://www.w3.org/2000/svg">
<path d="M375.013 30.7569L375.023 30.7615C435.327 59.5208 484.422 108.566 513.21 168.808L513.215 168.818C531.691 206.944 541.696 249.928 542 295.053C542 295.056 542 295.059 542 295.062L542 688.549C542 741.697 498.656 785 445.449 785C392.242 785 348.898 741.697 348.898 688.549V295.049C348.898 239.687 303.76 194.598 248.347 194.598C192.939 194.598 147.793 239.685 148.102 295.055L148.102 491.646C148.102 518.199 137.056 542.088 119.697 559.732C102.365 577.044 78.1574 587.793 51.5509 587.793C24.9416 587.793 0.731621 577.041 -16.601 559.726L-16.607 559.72L-16.6131 559.714C-34.2403 542.404 -45 518.225 -45 491.646L-45 295.049C-45 249.941 -34.6969 206.953 -16.5162 168.811C0.453358 133.697 24.0919 102.51 52.5875 76.4646C73.1812 58.0107 96.506 42.5751 121.656 30.4642C131.102 26.2029 140.785 21.9733 150.446 18.6557L150.457 18.652L150.467 18.6483C181.064 7.75346 214.094 2 248.347 2C282.601 2 315.624 7.75341 346.211 18.9471L346.239 18.9572L346.266 18.9665C356.241 22.288 365.619 26.216 375.013 30.7569Z" stroke="#F87D50" stroke-width="4"/>
</svg>
